<mxfile host="65bd71144e">
    <diagram id="q2Cbs21cbw6nmlhCZr5I" name="Page-1">
        <mxGraphModel dx="1154" dy="551" grid="1" gridSize="10" guides="1" tooltips="1" connect="1" arrows="1" fold="1" page="1" pageScale="1" pageWidth="827" pageHeight="1169" math="0" shadow="0">
            <root>
                <mxCell id="0"/>
                <mxCell id="1" parent="0"/>
                <mxCell id="2" value="Request Lifecycle" style="shape=ext;double=1;rounded=1;whiteSpace=wrap;html=1;fillColor=#f9f7ed;strokeColor=#36393d;shadow=1;verticalAlign=top;align=left;fontColor=#000000;spacingLeft=40;spacingTop=-2;" parent="1" vertex="1">
                    <mxGeometry x="60" y="360" width="770" height="350" as="geometry"/>
                </mxCell>
                <mxCell id="6" value="Lambda" style="sketch=0;points=[[0,0,0],[0.25,0,0],[0.5,0,0],[0.75,0,0],[1,0,0],[0,1,0],[0.25,1,0],[0.5,1,0],[0.75,1,0],[1,1,0],[0,0.25,0],[0,0.5,0],[0,0.75,0],[1,0.25,0],[1,0.5,0],[1,0.75,0]];outlineConnect=0;fontColor=#232F3E;gradientColor=#F78E04;gradientDirection=north;fillColor=#D05C17;strokeColor=#ffffff;dashed=0;verticalLabelPosition=bottom;verticalAlign=top;align=center;html=1;fontSize=12;fontStyle=0;aspect=fixed;shape=mxgraph.aws4.resourceIcon;resIcon=mxgraph.aws4.lambda;rounded=1;shadow=0;labelPosition=center;rotation=0;" parent="1" vertex="1">
                    <mxGeometry x="485" y="486.25" width="95" height="95" as="geometry"/>
                </mxCell>
                <mxCell id="7" value="Api Gateway" style="sketch=0;points=[[0,0,0],[0.25,0,0],[0.5,0,0],[0.75,0,0],[1,0,0],[0,1,0],[0.25,1,0],[0.5,1,0],[0.75,1,0],[1,1,0],[0,0.25,0],[0,0.5,0],[0,0.75,0],[1,0.25,0],[1,0.5,0],[1,0.75,0]];outlineConnect=0;fontColor=#232F3E;gradientColor=#945DF2;gradientDirection=north;fillColor=#5A30B5;strokeColor=#ffffff;dashed=0;verticalLabelPosition=bottom;verticalAlign=top;align=center;html=1;fontSize=12;fontStyle=0;aspect=fixed;shape=mxgraph.aws4.resourceIcon;resIcon=mxgraph.aws4.api_gateway;rounded=1;shadow=0;rotation=0;" parent="1" vertex="1">
                    <mxGeometry x="290" y="486.25" width="95" height="95" as="geometry"/>
                </mxCell>
                <mxCell id="29" value="Endpoint" style="sketch=0;points=[[0,0,0],[0.25,0,0],[0.5,0,0],[0.75,0,0],[1,0,0],[0,1,0],[0.25,1,0],[0.5,1,0],[0.75,1,0],[1,1,0],[0,0.25,0],[0,0.5,0],[0,0.75,0],[1,0.25,0],[1,0.5,0],[1,0.75,0]];outlineConnect=0;fontColor=#232F3E;gradientColor=#4AB29A;gradientDirection=north;fillColor=#116D5B;strokeColor=#ffffff;dashed=0;verticalLabelPosition=bottom;verticalAlign=top;align=center;html=1;fontSize=12;fontStyle=0;aspect=fixed;shape=mxgraph.aws4.resourceIcon;resIcon=mxgraph.aws4.sagemaker;rounded=1;shadow=0;labelBackgroundColor=none;rotation=0;" parent="1" vertex="1">
                    <mxGeometry x="680" y="485" width="95" height="95" as="geometry"/>
                </mxCell>
                <mxCell id="34" value="Client" style="sketch=0;outlineConnect=0;gradientColor=none;fontColor=#545B64;strokeColor=none;fillColor=#879196;dashed=0;verticalLabelPosition=bottom;verticalAlign=top;align=center;html=1;fontSize=12;fontStyle=0;aspect=fixed;shape=mxgraph.aws4.illustration_users;pointerEvents=1;rotation=0;" vertex="1" parent="1">
                    <mxGeometry x="80" y="485" width="95" height="95" as="geometry"/>
                </mxCell>
                <mxCell id="35" value="" style="line;strokeWidth=2;direction=south;html=1;strokeColor=#000000;dashed=1;" vertex="1" parent="1">
                    <mxGeometry x="230" y="360" width="10" height="350" as="geometry"/>
                </mxCell>
                <mxCell id="44" value="" style="shape=singleArrow;whiteSpace=wrap;html=1;strokeColor=#000000;arrowWidth=0.16551724137931387;arrowSize=0.17275862068965409;" vertex="1" parent="1">
                    <mxGeometry x="393" y="500" width="85" height="10" as="geometry"/>
                </mxCell>
                <mxCell id="45" value="" style="shape=singleArrow;whiteSpace=wrap;html=1;strokeColor=#000000;arrowWidth=0.16551724137931387;arrowSize=0.17275862068965409;" vertex="1" parent="1">
                    <mxGeometry x="588" y="500" width="85" height="10" as="geometry"/>
                </mxCell>
                <mxCell id="46" value="" style="shape=singleArrow;whiteSpace=wrap;html=1;strokeColor=#000000;arrowWidth=0.16551724137931387;arrowSize=0.17275862068965409;" vertex="1" parent="1">
                    <mxGeometry x="190" y="500" width="85" height="10" as="geometry"/>
                </mxCell>
                <mxCell id="47" value="" style="shape=singleArrow;whiteSpace=wrap;html=1;strokeColor=#000000;arrowWidth=0.16551724137931387;arrowSize=0.17275862068965409;direction=west;" vertex="1" parent="1">
                    <mxGeometry x="190" y="550" width="85" height="10" as="geometry"/>
                </mxCell>
                <mxCell id="48" value="" style="shape=singleArrow;whiteSpace=wrap;html=1;strokeColor=#000000;arrowWidth=0.16551724137931387;arrowSize=0.17275862068965409;direction=west;" vertex="1" parent="1">
                    <mxGeometry x="393" y="550" width="85" height="10" as="geometry"/>
                </mxCell>
                <mxCell id="49" value="" style="shape=singleArrow;whiteSpace=wrap;html=1;strokeColor=#000000;arrowWidth=0.16551724137931387;arrowSize=0.17275862068965409;direction=west;" vertex="1" parent="1">
                    <mxGeometry x="588" y="550" width="85" height="10" as="geometry"/>
                </mxCell>
            </root>
        </mxGraphModel>
    </diagram>
</mxfile>
